<?xml version="1.0" encoding="UTF-8" standalone="no"?>
<svg
   xmlns:dc="http://purl.org/dc/elements/1.1/"
   xmlns:cc="http://creativecommons.org/ns#"
   xmlns:rdf="http://www.w3.org/1999/02/22-rdf-syntax-ns#"
   xmlns:svg="http://www.w3.org/2000/svg"
   xmlns="http://www.w3.org/2000/svg"
   xmlns:sodipodi="http://sodipodi.sourceforge.net/DTD/sodipodi-0.dtd"
   xmlns:inkscape="http://www.inkscape.org/namespaces/inkscape"
   width="100"
   height="100"
   viewBox="0 0 75 75"
   version="1.1"
   id="svg7"
   sodipodi:docname="ERC_logo_2017.svg"
   inkscape:version="1.0.1 (3bc2e813f5, 2020-09-07)">
  <metadata
     id="metadata13">
    <rdf:RDF>
      <cc:Work
         rdf:about="">
        <dc:format>image/svg+xml</dc:format>
        <dc:type
           rdf:resource="http://purl.org/dc/dcmitype/StillImage" />
        <dc:title />
      </cc:Work>
    </rdf:RDF>
  </metadata>
  <defs
     id="defs11" />
  <sodipodi:namedview
     pagecolor="#ffffff"
     bordercolor="#666666"
     borderopacity="1"
     objecttolerance="10"
     gridtolerance="10"
     guidetolerance="10"
     inkscape:pageopacity="0"
     inkscape:pageshadow="2"
     inkscape:window-width="1768"
     inkscape:window-height="1447"
     id="namedview9"
     showgrid="false"
     units="px"
     inkscape:zoom="3.3012711"
     inkscape:cx="97.71394"
     inkscape:cy="43.581622"
     inkscape:window-x="1335"
     inkscape:window-y="359"
     inkscape:window-maximized="0"
     inkscape:current-layer="svg7"
     inkscape:document-rotation="0" />
  <g
     id="surface1"
     transform="matrix(0.03816712,0,0,0.03816712,0,31.053536)">
    <path
       style="fill:#bf0c17;fill-opacity:1;fill-rule:nonzero;stroke:none"
       d="m 0,389.27734 v -97.25 l 95.179688,-96.5625 v 194.5 H 0 Z m 189.67187,0 V 98.214844 L 284.85156,1.65625 v 387.62109 z m 190.36329,0 V 1.65625 l 95.17968,96.558594 V 389.27734 Z m 189.67187,0 v -194.5 l 95.17969,96.5586 v 97.25 h -95.17969 z m 0,0"
       id="path2" />
    <path
       style="fill:#000000;fill-opacity:1;fill-rule:nonzero;stroke:none"
       d="m 933.875,185.80859 h -52.41797 v -19.3125 h 47.58984 V 141.66797 H 881.45703 V 123.73438 H 933.875 V 98.214844 H 852.48828 V 212.01953 H 933.875 Z m 39.3125,-21.3789 17.24609,4.82812 c 6.20703,2.06641 9.65231,4.13672 9.65231,9.65625 0,6.89453 -8.2734,8.96485 -17.92965,8.96485 -13.10547,0 -26.89844,-5.51954 -36.55469,-11.72657 v 27.58985 c 8.27344,4.82812 22.07031,8.96484 37.24219,8.96484 25.51955,0 46.90235,-11.03516 46.90235,-35.86328 0,-17.24219 -9.6563,-28.27734 -30.34766,-34.48828 l -17.24219,-5.51563 C 975.94922,134.76953 972.5,132.70312 972.5,127.875 c 0,-5.51953 6.20703,-8.27734 15.17187,-8.27734 13.10543,0 24.14063,4.13672 34.48833,11.03515 v -27.58984 c -9.6563,-5.515626 -20.6915,-8.277345 -35.86723,-8.277345 -24.14063,0 -42.76172,12.417965 -42.76172,35.175785 0,20.0039 10.34375,28.96875 29.65625,34.48828 z m 120.7031,-68.285159 c -33.1093,0 -55.8672,24.832029 -55.8672,58.628909 0,33.79297 22.7579,58.625 55.8672,58.625 7.586,0 15.1719,-1.37891 22.0703,-4.82813 l 8.9649,11.03516 17.9336,-14.48438 -8.2774,-10.34375 c 8.9649,-10.34765 15.1758,-24.14062 15.1758,-40.69531 0,-33.79687 -22.7617,-57.937499 -55.8672,-57.937499 z m 22.7578,77.249999 -8.2734,-10.34766 -17.9336,13.79688 8.9649,11.03516 c -1.379,0.6875 -3.4493,0.6875 -5.5157,0.6875 -15.1758,0 -25.5195,-14.48047 -25.5195,-33.79297 0,-19.3125 10.3437,-32.41797 25.5195,-32.41797 15.1719,0 25.5196,13.10547 25.5196,32.41797 0,6.89453 -1.3829,13.10156 -2.7618,18.62109 z m 113.8047,-11.03516 c 0,15.86329 -7.5859,24.14063 -20.0039,24.14063 -12.414,0 -20,-8.27734 -20,-24.14063 V 97.527344 h -29.6562 v 66.902346 c 0,31.03515 20,48.27734 49.6562,48.27734 30.3477,0 49.6602,-17.24219 49.6602,-48.27734 V 96.835938 h -29.6563 z m 126.9063,23.44922 h -52.418 v -19.3125 h 47.5899 v -24.82812 h -47.5899 v -17.93359 h 52.418 V 98.214844 h -81.3867 V 212.01953 h 81.3867 z m 107.5976,-49.66015 c 0,-24.82813 -17.2422,-38.621096 -41.3828,-38.621096 h -51.039 V 211.32812 h 29.6562 v -37.24218 h 10.3477 l 23.4492,37.24218 h 33.1055 l -26.8985,-40.6914 c 13.793,-5.51953 22.7617,-17.24219 22.7617,-34.48828 z m -44.832,13.79687 h -18.6211 v -27.58984 h 18.6211 c 10.3438,0 15.1719,5.51953 15.1719,13.79297 0,8.27734 -4.1367,13.79687 -15.1719,13.79687 z m 122.7695,61.38281 H 1576 l -26.8984,-40.6914 c 13.7929,-5.51953 22.7617,-17.24219 22.7617,-34.48828 0,-24.82813 -17.2422,-38.621096 -41.3828,-38.621096 h -51.0391 V 211.32812 h 29.6563 v -37.24218 h 10.3476 z m -34.4843,-88.97265 h 18.6211 c 10.3437,0 15.1718,5.51953 15.1718,13.79297 0,8.27734 -4.8281,13.79687 -15.1718,13.79687 h -18.6211 z m 148.9765,66.90234 8.2774,22.07031 h 30.3476 L 1652.5586,97.527344 h -30.3477 l -43.4531,113.800776 h 29.6602 l 8.2773,-22.07031 z m -20.6914,-56.55469 11.7266,31.72657 h -23.4531 z M 944.91016,314.78516 c 0,-24.82813 -17.24219,-38.6211 -41.38282,-38.6211 h -51.03906 v 113.80078 h 29.65625 v -37.24609 h 10.34766 l 23.44922,37.24609 h 33.10546 l -26.89843,-40.6914 c 13.79687,-5.51953 22.76172,-17.2461 22.76172,-34.48828 z m -44.83204,13.10546 h -18.62109 v -27.58984 h 18.62109 c 10.34766,0 15.17579,5.51953 15.17579,13.79688 0.6875,8.96484 -4.14063,13.79296 -15.17579,13.79296 z m 58.625,61.38672 h 81.38668 v -25.51953 h -52.41793 v -19.3125 h 47.58983 v -25.51953 h -47.58983 v -17.93359 h 52.41793 V 275.47266 H 958.70312 Z M 1105.6133,276.16406 h -50.3477 v 113.80078 h 29.6563 v -35.17578 h 20.6914 c 24.832,0 41.3828,-13.79297 41.3828,-39.3125 0,-25.51953 -17.2422,-39.3125 -41.3828,-39.3125 z m -3.4492,53.10547 h -17.2422 v -28.27734 h 17.2422 c 11.0351,0 15.8632,5.51562 15.8632,14.48437 0,8.27735 -4.8281,13.79297 -15.8632,13.79297 z m 125.5312,11.03516 c 0,15.86328 -7.5898,24.14062 -20.0039,24.14062 -12.4141,0 -20,-8.27734 -20,-24.14062 v -64.83203 h -29.6601 V 342.375 c 0,31.03516 20.0039,48.28125 49.6601,48.28125 30.3477,0 49.6602,-17.24609 49.6602,-48.28125 v -67.59375 h -29.6563 z m 117.25,-9.65625 c 8.2774,-2.75782 15.1758,-11.72266 15.1758,-24.14063 0,-20.6914 -14.4844,-31.03515 -37.9375,-31.03515 h -48.9688 v 113.80468 h 52.418 c 23.4492,0 37.9336,-11.03906 37.9336,-31.73047 0,-12.41406 -7.5859,-23.44921 -18.6211,-26.89843 z m -42.7617,-30.34766 h 17.2422 c 8.9648,0 13.1055,3.44922 13.1055,10.34766 0,6.89843 -4.8282,10.34375 -13.1055,10.34375 h -17.2422 z m 20,64.83594 h -20 v -22.07031 h 20 c 8.2773,0 13.1055,4.13671 13.1055,11.03515 -0.6875,6.20703 -4.8282,11.03516 -13.1055,11.03516 z m 84.8359,-88.97266 h -29.6562 v 113.80078 h 80.6953 v -25.51953 h -51.0391 z m 64.8321,113.11328 h 29.6601 V 276.16406 h -29.6601 z m 42.0742,-56.55859 c 0,35.17578 23.4492,58.625 58.625,58.625 12.414,0 22.0703,-2.75781 28.9687,-7.58594 v -28.96875 c -8.2773,6.20703 -17.2422,8.96875 -26.8984,8.96875 -18.6211,0 -31.0391,-11.72656 -31.0391,-31.03906 0,-19.3125 12.418,-31.03516 31.0391,-31.03516 9.6562,0 18.6211,2.75782 26.8984,8.96485 v -28.96875 c -7.5859,-4.82813 -17.2422,-7.58594 -28.9687,-7.58594 -34.4844,0 -58.625,23.44922 -58.625,58.625 z m 139.3242,-56.55469 -43.4531,113.80078 h 29.6562 l 8.2774,-22.07031 h 41.3828 l 8.2773,22.07031 h 30.3477 l -43.4531,-113.80078 z m 2.7578,66.90235 11.7266,-31.73047 11.7226,31.73047 z m 152.4258,-4.82813 -44.1406,-62.76562 h -27.5899 v 113.80468 h 28.9688 V 323.0625 l 47.5898,66.21484 h 24.1406 V 275.47266 h -28.9687 z m 112.4258,-62.07422 h -30.3477 l -43.4531,113.80078 h 29.6562 l 8.2774,-22.07031 h 41.3828 l 8.2773,22.07031 H 1965 Z m -26.8985,66.90235 11.7227,-31.73047 11.7266,31.73047 z m 0,0"
       id="path4" />
  </g>
</svg>
